<mxfile host="app.diagrams.net" agent="Mozilla/5.0 (Windows NT 10.0; Win64; x64) AppleWebKit/537.36 (KHTML, like Gecko) Chrome/128.0.0.0 Safari/537.36" version="24.7.10">
  <diagram name="Page-1" id="Qo8LJjsgdHMxlecdMoCS">
    <mxGraphModel dx="1430" dy="763" grid="1" gridSize="10" guides="1" tooltips="1" connect="1" arrows="1" fold="1" page="1" pageScale="1" pageWidth="850" pageHeight="1100" math="0" shadow="0">
      <root>
        <mxCell id="0" />
        <mxCell id="1" parent="0" />
        <mxCell id="P1bPsyXFWGVqgT9vlOX6-7" style="edgeStyle=orthogonalEdgeStyle;rounded=0;orthogonalLoop=1;jettySize=auto;html=1;exitX=0.5;exitY=1;exitDx=0;exitDy=0;entryX=0.5;entryY=0;entryDx=0;entryDy=0;" edge="1" parent="1" source="P1bPsyXFWGVqgT9vlOX6-1" target="P1bPsyXFWGVqgT9vlOX6-2">
          <mxGeometry relative="1" as="geometry" />
        </mxCell>
        <mxCell id="P1bPsyXFWGVqgT9vlOX6-1" value="Start" style="ellipse;whiteSpace=wrap;html=1;fillColor=#d5e8d4;strokeColor=#82b366;" vertex="1" parent="1">
          <mxGeometry x="50" y="70" width="120" height="80" as="geometry" />
        </mxCell>
        <mxCell id="P1bPsyXFWGVqgT9vlOX6-8" style="edgeStyle=orthogonalEdgeStyle;rounded=0;orthogonalLoop=1;jettySize=auto;html=1;exitX=0.5;exitY=1;exitDx=0;exitDy=0;entryX=0.5;entryY=0;entryDx=0;entryDy=0;" edge="1" parent="1" source="P1bPsyXFWGVqgT9vlOX6-2" target="P1bPsyXFWGVqgT9vlOX6-3">
          <mxGeometry relative="1" as="geometry" />
        </mxCell>
        <mxCell id="P1bPsyXFWGVqgT9vlOX6-2" value="Check customer&#39;s ID" style="rounded=1;whiteSpace=wrap;html=1;" vertex="1" parent="1">
          <mxGeometry x="50" y="180" width="120" height="60" as="geometry" />
        </mxCell>
        <mxCell id="P1bPsyXFWGVqgT9vlOX6-9" value="Yes" style="edgeStyle=orthogonalEdgeStyle;rounded=0;orthogonalLoop=1;jettySize=auto;html=1;exitX=1;exitY=0.5;exitDx=0;exitDy=0;" edge="1" parent="1" source="P1bPsyXFWGVqgT9vlOX6-3" target="P1bPsyXFWGVqgT9vlOX6-5">
          <mxGeometry relative="1" as="geometry" />
        </mxCell>
        <mxCell id="P1bPsyXFWGVqgT9vlOX6-10" value="No" style="edgeStyle=orthogonalEdgeStyle;rounded=0;orthogonalLoop=1;jettySize=auto;html=1;exitX=0.5;exitY=1;exitDx=0;exitDy=0;entryX=0.5;entryY=0;entryDx=0;entryDy=0;" edge="1" parent="1" source="P1bPsyXFWGVqgT9vlOX6-3" target="P1bPsyXFWGVqgT9vlOX6-4">
          <mxGeometry relative="1" as="geometry" />
        </mxCell>
        <mxCell id="P1bPsyXFWGVqgT9vlOX6-3" value="is the customer&lt;br&gt;&amp;nbsp;at least 25 and currently insured?" style="rhombus;whiteSpace=wrap;html=1;" vertex="1" parent="1">
          <mxGeometry x="50" y="260" width="120" height="100" as="geometry" />
        </mxCell>
        <mxCell id="P1bPsyXFWGVqgT9vlOX6-12" value="" style="edgeStyle=orthogonalEdgeStyle;rounded=0;orthogonalLoop=1;jettySize=auto;html=1;" edge="1" parent="1" source="P1bPsyXFWGVqgT9vlOX6-4" target="P1bPsyXFWGVqgT9vlOX6-6">
          <mxGeometry relative="1" as="geometry" />
        </mxCell>
        <mxCell id="P1bPsyXFWGVqgT9vlOX6-4" value="Rental cannot be granted" style="rounded=1;whiteSpace=wrap;html=1;" vertex="1" parent="1">
          <mxGeometry x="50" y="400" width="120" height="60" as="geometry" />
        </mxCell>
        <mxCell id="P1bPsyXFWGVqgT9vlOX6-11" value="" style="edgeStyle=orthogonalEdgeStyle;rounded=0;orthogonalLoop=1;jettySize=auto;html=1;" edge="1" parent="1" source="P1bPsyXFWGVqgT9vlOX6-5" target="P1bPsyXFWGVqgT9vlOX6-6">
          <mxGeometry relative="1" as="geometry" />
        </mxCell>
        <mxCell id="P1bPsyXFWGVqgT9vlOX6-5" value="Rental can be granted" style="rounded=1;whiteSpace=wrap;html=1;" vertex="1" parent="1">
          <mxGeometry x="220" y="280" width="120" height="60" as="geometry" />
        </mxCell>
        <mxCell id="P1bPsyXFWGVqgT9vlOX6-14" value="" style="edgeStyle=orthogonalEdgeStyle;rounded=0;orthogonalLoop=1;jettySize=auto;html=1;" edge="1" parent="1" source="P1bPsyXFWGVqgT9vlOX6-6" target="P1bPsyXFWGVqgT9vlOX6-13">
          <mxGeometry relative="1" as="geometry" />
        </mxCell>
        <mxCell id="P1bPsyXFWGVqgT9vlOX6-6" value="" style="ellipse;whiteSpace=wrap;html=1;aspect=fixed;" vertex="1" parent="1">
          <mxGeometry x="260" y="410" width="40" height="40" as="geometry" />
        </mxCell>
        <mxCell id="P1bPsyXFWGVqgT9vlOX6-13" value="End" style="ellipse;whiteSpace=wrap;html=1;fillColor=#f8cecc;strokeColor=#b85450;" vertex="1" parent="1">
          <mxGeometry x="220" y="510" width="120" height="80" as="geometry" />
        </mxCell>
      </root>
    </mxGraphModel>
  </diagram>
</mxfile>
